<mxfile host="65bd71144e">
    <diagram id="53IQXVl9icCSp_Kw3Ib1" name="Page-1">
        <mxGraphModel dx="1461" dy="1124" grid="1" gridSize="10" guides="1" tooltips="1" connect="1" arrows="1" fold="1" page="1" pageScale="1" pageWidth="1100" pageHeight="850" math="0" shadow="0">
            <root>
                <mxCell id="0"/>
                <mxCell id="1" parent="0"/>
                <mxCell id="uWUnNED6HEl2aK5fdaIb-8" value="" style="edgeStyle=orthogonalEdgeStyle;rounded=0;html=1;jettySize=auto;orthogonalLoop=1;plain-blue;endArrow=none;endFill=0;strokeWidth=4;strokeColor=#000000;" parent="1" source="uWUnNED6HEl2aK5fdaIb-10" edge="1">
                    <mxGeometry x="292.25" y="211" as="geometry">
                        <mxPoint x="860" y="211" as="targetPoint"/>
                    </mxGeometry>
                </mxCell>
                <mxCell id="uWUnNED6HEl2aK5fdaIb-9" style="edgeStyle=orthogonalEdgeStyle;rounded=1;html=1;exitX=1;exitY=0.5;exitPerimeter=0;entryX=0;entryY=0.5;entryPerimeter=0;endArrow=none;endFill=0;jettySize=auto;orthogonalLoop=1;strokeWidth=4;fontSize=15;strokeColor=#000000;" parent="1" source="uWUnNED6HEl2aK5fdaIb-10" target="uWUnNED6HEl2aK5fdaIb-15" edge="1">
                    <mxGeometry relative="1" as="geometry"/>
                </mxCell>
                <mxCell id="uWUnNED6HEl2aK5fdaIb-10" value="" style="verticalLabelPosition=bottom;verticalAlign=top;html=1;strokeWidth=4;shape=mxgraph.flowchart.on-page_reference;plain-blue;gradientColor=none;fillColor=#B5E3Fe;strokeColor=#000000;" parent="1" vertex="1">
                    <mxGeometry x="262.25" y="196" width="30" height="30" as="geometry"/>
                </mxCell>
                <mxCell id="uWUnNED6HEl2aK5fdaIb-109" value="" style="verticalLabelPosition=bottom;verticalAlign=top;html=1;strokeWidth=4;shape=mxgraph.flowchart.on-page_reference;plain-blue;gradientColor=none;strokeColor=#33001A;fillColor=#B5E3FE;" parent="1" vertex="1">
                    <mxGeometry x="861.25" y="196" width="30" height="30" as="geometry"/>
                </mxCell>
                <mxCell id="uWUnNED6HEl2aK5fdaIb-12" value="" style="edgeStyle=orthogonalEdgeStyle;rounded=0;html=1;jettySize=auto;orthogonalLoop=1;strokeWidth=4;endArrow=none;endFill=0;strokeColor=#000000;" parent="1" target="uWUnNED6HEl2aK5fdaIb-10" edge="1">
                    <mxGeometry x="192.25" y="211" as="geometry">
                        <mxPoint x="150" y="211" as="sourcePoint"/>
                    </mxGeometry>
                </mxCell>
                <mxCell id="uWUnNED6HEl2aK5fdaIb-13" value="&lt;font style=&quot;font-size: 23px;&quot;&gt;main&lt;/font&gt;" style="text;html=1;strokeColor=none;fillColor=none;align=center;verticalAlign=middle;whiteSpace=wrap;overflow=hidden;fontSize=23;fontStyle=1;fontFamily=Courier New;fontColor=#000000;" parent="1" vertex="1">
                    <mxGeometry x="83" y="190" width="67" height="42" as="geometry"/>
                </mxCell>
                <mxCell id="uWUnNED6HEl2aK5fdaIb-14" style="edgeStyle=orthogonalEdgeStyle;curved=1;rounded=0;html=1;exitX=1;exitY=0.5;exitPerimeter=0;endArrow=none;endFill=0;jettySize=auto;orthogonalLoop=1;strokeWidth=4;fontSize=15;strokeColor=#000000;entryX=0;entryY=0.5;entryDx=0;entryDy=0;entryPerimeter=0;" parent="1" source="uWUnNED6HEl2aK5fdaIb-15" target="uWUnNED6HEl2aK5fdaIb-106" edge="1">
                    <mxGeometry relative="1" as="geometry">
                        <mxPoint x="446.75" y="296" as="targetPoint"/>
                    </mxGeometry>
                </mxCell>
                <mxCell id="uWUnNED6HEl2aK5fdaIb-15" value="" style="verticalLabelPosition=bottom;verticalAlign=top;html=1;strokeWidth=4;shape=mxgraph.flowchart.on-page_reference;plain-purple;gradientColor=none;strokeColor=#000000;fillColor=#D5E8D4;" parent="1" vertex="1">
                    <mxGeometry x="339.75" y="281" width="30" height="30" as="geometry"/>
                </mxCell>
                <mxCell id="3" style="edgeStyle=none;html=1;exitX=0.5;exitY=0;exitDx=0;exitDy=0;fontSize=20;strokeColor=#000000;" edge="1" parent="1" source="uWUnNED6HEl2aK5fdaIb-20">
                    <mxGeometry relative="1" as="geometry">
                        <mxPoint x="144" y="280" as="targetPoint"/>
                    </mxGeometry>
                </mxCell>
                <mxCell id="uWUnNED6HEl2aK5fdaIb-20" value="&lt;font style=&quot;font-size: 23px;&quot;&gt;develop&lt;/font&gt;" style="text;html=1;strokeColor=none;fillColor=none;align=left;verticalAlign=middle;whiteSpace=wrap;overflow=hidden;fontSize=23;fontStyle=1;fontFamily=Courier New;fontColor=#000000;" parent="1" vertex="1">
                    <mxGeometry x="88.75" y="280" width="111.25" height="34" as="geometry"/>
                </mxCell>
                <mxCell id="uWUnNED6HEl2aK5fdaIb-71" value="" style="edgeStyle=orthogonalEdgeStyle;rounded=1;orthogonalLoop=1;jettySize=auto;html=1;endArrow=none;endFill=0;strokeWidth=4;entryX=0;entryY=0.5;entryDx=0;entryDy=0;entryPerimeter=0;startArrow=none;strokeColor=#000000;" parent="1" source="9" target="uWUnNED6HEl2aK5fdaIb-95" edge="1">
                    <mxGeometry relative="1" as="geometry">
                        <mxPoint x="480" y="374.5" as="sourcePoint"/>
                        <mxPoint x="514.75" y="376" as="targetPoint"/>
                    </mxGeometry>
                </mxCell>
                <mxCell id="uWUnNED6HEl2aK5fdaIb-75" style="edgeStyle=orthogonalEdgeStyle;orthogonalLoop=1;jettySize=auto;html=1;endArrow=none;endFill=0;strokeWidth=4;rounded=1;entryX=1;entryY=0.5;entryDx=0;entryDy=0;entryPerimeter=0;strokeColor=#000000;" parent="1" target="uWUnNED6HEl2aK5fdaIb-15" edge="1">
                    <mxGeometry relative="1" as="geometry">
                        <mxPoint x="450" y="374.5" as="sourcePoint"/>
                        <mxPoint x="360" y="200" as="targetPoint"/>
                        <Array as="points">
                            <mxPoint x="400" y="375"/>
                            <mxPoint x="400" y="296"/>
                        </Array>
                    </mxGeometry>
                </mxCell>
                <mxCell id="uWUnNED6HEl2aK5fdaIb-108" style="edgeStyle=orthogonalEdgeStyle;rounded=1;orthogonalLoop=1;jettySize=auto;html=1;entryX=0;entryY=0.5;entryDx=0;entryDy=0;entryPerimeter=0;endArrow=none;endFill=0;strokeWidth=4;fontFamily=Courier New;fontColor=#009900;strokeColor=#000000;" parent="1" source="uWUnNED6HEl2aK5fdaIb-95" target="uWUnNED6HEl2aK5fdaIb-106" edge="1">
                    <mxGeometry relative="1" as="geometry">
                        <Array as="points">
                            <mxPoint x="740" y="375"/>
                            <mxPoint x="740" y="296"/>
                        </Array>
                    </mxGeometry>
                </mxCell>
                <mxCell id="uWUnNED6HEl2aK5fdaIb-95" value="" style="verticalLabelPosition=bottom;verticalAlign=top;html=1;strokeWidth=4;shape=mxgraph.flowchart.on-page_reference;plain-purple;gradientColor=none;strokeColor=#000000;fillColor=#D5E8D4;" parent="1" vertex="1">
                    <mxGeometry x="660" y="359" width="30" height="30" as="geometry"/>
                </mxCell>
                <mxCell id="uWUnNED6HEl2aK5fdaIb-76" value="&lt;font style=&quot;font-size: 23px;&quot;&gt;version 2.0 RC2&lt;/font&gt;" style="text;html=1;strokeColor=none;fillColor=none;align=left;verticalAlign=middle;whiteSpace=wrap;overflow=hidden;fontSize=23;fontStyle=1;fontFamily=Courier New;fontColor=#000000;" parent="1" vertex="1">
                    <mxGeometry x="88.75" y="361" width="221.25" height="28" as="geometry"/>
                </mxCell>
                <mxCell id="uWUnNED6HEl2aK5fdaIb-103" value="&lt;font style=&quot;font-size: 20px&quot;&gt;&lt;b&gt;V 1.1.0&lt;/b&gt;&lt;/font&gt;" style="text;html=1;strokeColor=none;fillColor=none;align=center;verticalAlign=middle;whiteSpace=wrap;overflow=hidden;fontSize=14;fontColor=#000000;" parent="1" vertex="1">
                    <mxGeometry x="242.25" y="160" width="70" height="30" as="geometry"/>
                </mxCell>
                <mxCell id="uWUnNED6HEl2aK5fdaIb-115" style="edgeStyle=orthogonalEdgeStyle;rounded=1;orthogonalLoop=1;jettySize=auto;html=1;entryX=0;entryY=0.5;entryDx=0;entryDy=0;entryPerimeter=0;endArrow=none;endFill=0;strokeWidth=4;fontFamily=Courier New;fontColor=#009900;strokeColor=#000000;" parent="1" source="uWUnNED6HEl2aK5fdaIb-106" target="uWUnNED6HEl2aK5fdaIb-109" edge="1">
                    <mxGeometry relative="1" as="geometry">
                        <Array as="points">
                            <mxPoint x="830" y="297"/>
                            <mxPoint x="830" y="211"/>
                        </Array>
                    </mxGeometry>
                </mxCell>
                <mxCell id="5" style="edgeStyle=none;html=1;exitX=0.145;exitY=0.855;exitDx=0;exitDy=0;exitPerimeter=0;fontSize=16;strokeColor=#000000;" edge="1" parent="1" source="uWUnNED6HEl2aK5fdaIb-106">
                    <mxGeometry relative="1" as="geometry">
                        <mxPoint x="760" y="300" as="targetPoint"/>
                    </mxGeometry>
                </mxCell>
                <mxCell id="uWUnNED6HEl2aK5fdaIb-106" value="" style="verticalLabelPosition=bottom;verticalAlign=top;html=1;strokeWidth=4;shape=mxgraph.flowchart.on-page_reference;plain-purple;gradientColor=none;strokeColor=#000000;fillColor=#D5E8D4;" parent="1" vertex="1">
                    <mxGeometry x="760" y="281" width="30" height="30" as="geometry"/>
                </mxCell>
                <mxCell id="uWUnNED6HEl2aK5fdaIb-116" value="&lt;font style=&quot;font-size: 20px&quot;&gt;&lt;b&gt;V 2.0.0&lt;/b&gt;&lt;/font&gt;" style="text;html=1;strokeColor=none;fillColor=none;align=center;verticalAlign=middle;whiteSpace=wrap;overflow=hidden;fontSize=14;fontColor=#000000;" parent="1" vertex="1">
                    <mxGeometry x="821.25" y="160" width="110" height="30" as="geometry"/>
                </mxCell>
                <mxCell id="8" value="" style="verticalLabelPosition=bottom;verticalAlign=top;html=1;strokeWidth=4;shape=mxgraph.flowchart.on-page_reference;plain-purple;gradientColor=none;strokeColor=#000000;fillColor=#D5E8D4;" vertex="1" parent="1">
                    <mxGeometry x="450" y="360" width="30" height="29" as="geometry"/>
                </mxCell>
                <mxCell id="9" value="" style="verticalLabelPosition=bottom;verticalAlign=top;html=1;strokeWidth=4;shape=mxgraph.flowchart.on-page_reference;plain-purple;gradientColor=none;strokeColor=#000000;fillColor=#D5E8D4;" vertex="1" parent="1">
                    <mxGeometry x="550" y="360" width="30" height="29" as="geometry"/>
                </mxCell>
                <mxCell id="10" value="" style="edgeStyle=orthogonalEdgeStyle;rounded=1;orthogonalLoop=1;jettySize=auto;html=1;endArrow=none;endFill=0;strokeWidth=4;entryX=0;entryY=0.5;entryDx=0;entryDy=0;entryPerimeter=0;strokeColor=#000000;" edge="1" parent="1" target="9">
                    <mxGeometry relative="1" as="geometry">
                        <mxPoint x="480" y="374.5" as="sourcePoint"/>
                        <mxPoint x="660" y="374" as="targetPoint"/>
                    </mxGeometry>
                </mxCell>
            </root>
        </mxGraphModel>
    </diagram>
</mxfile>